HIERARCHY
ROOT Hips
{
	OFFSET 0.000000 0.000000 0.000000
	CHANNELS 6 Xposition Yposition Zposition Zrotation Yrotation Xrotation 
	JOINT LHipJoint
	{
		OFFSET 0.000000 0.000000 0.000000
		CHANNELS 3 Zrotation Yrotation Xrotation
		JOINT LeftUpLeg
		{
			OFFSET 1.363060 -1.794630 0.839290
			CHANNELS 3 Zrotation Yrotation Xrotation
			JOINT LeftLeg
			{
				OFFSET 2.448110 -6.726130 0.000000
				CHANNELS 3 Zrotation Yrotation Xrotation
				JOINT LeftFoot
				{
					OFFSET 2.562200 -7.039590 0.000000
					CHANNELS 3 Zrotation Yrotation Xrotation
					JOINT LeftToeBase
					{
						OFFSET 0.157640 -0.433110 2.322550
						CHANNELS 3 Zrotation Yrotation Xrotation
						End Site
						{
							OFFSET 0.000000 0.000000 0.000000
						}
					}
				}
			}
		}
	}
	JOINT RHipJoint
	{
		OFFSET 0.000000 0.000000 0.000000
		CHANNELS 3 Zrotation Yrotation Xrotation
		JOINT RightUpLeg
		{
			OFFSET -1.305520 -1.794630 0.839290
			CHANNELS 3 Zrotation Yrotation Xrotation
			JOINT RightLeg
			{
				OFFSET -2.542530 -6.985550 0.000000
				CHANNELS 3 Zrotation Yrotation Xrotation
				JOINT RightFoot
				{
					OFFSET -2.568260 -7.056230 0.000000
					CHANNELS 3 Zrotation Yrotation Xrotation
					JOINT RightToeBase
					{
						OFFSET -0.164730 -0.452590 2.363150
						CHANNELS 3 Zrotation Yrotation Xrotation
						End Site
						{
							OFFSET 0.000000 0.000000 0.000000
						}
					}
				}
			}
		}
	}
	JOINT LowerBack
	{
		OFFSET 0.000000 0.000000 0.000000
		CHANNELS 3 Zrotation Yrotation Xrotation
		JOINT Spine
		{
			OFFSET 0.028270 2.035590 -0.193380
			CHANNELS 3 Zrotation Yrotation Xrotation
			JOINT Spine1
			{
				OFFSET 0.056720 2.048850 -0.042750
				CHANNELS 3 Zrotation Yrotation Xrotation
				JOINT Neck
				{
					OFFSET 0.000000 0.000000 0.000000
					CHANNELS 3 Zrotation Yrotation Xrotation
					JOINT Neck1
					{
						OFFSET -0.054170 1.746240 0.172020
						CHANNELS 3 Zrotation Yrotation Xrotation
						JOINT Head
						{
							OFFSET 0.104070 1.761360 -0.123970
							CHANNELS 3 Zrotation Yrotation Xrotation
							End Site
							{
								OFFSET 0.000000 0.000000 0.000000
							}
						}
					}
				}
				JOINT LeftShoulder
				{
					OFFSET 0.000000 0.000000 0.000000
					CHANNELS 3 Zrotation Yrotation Xrotation
					JOINT LeftArm
					{
						OFFSET 3.362410 1.200890 -0.311210
						CHANNELS 3 Zrotation Yrotation Xrotation
						JOINT LeftForeArm
						{
							OFFSET 4.983000 -0.000000 -0.000000
							CHANNELS 3 Zrotation Yrotation Xrotation
							JOINT LeftHand
							{
								OFFSET 3.483560 -0.000000 -0.000000
								CHANNELS 3 Zrotation Yrotation Xrotation
								JOINT LeftFingerBase
								{
									OFFSET 0.000000 0.000000 0.000000
									CHANNELS 3 Zrotation Yrotation Xrotation
									JOINT LeftHandIndex1
									{
										OFFSET 0.715260 -0.000000 -0.000000
										CHANNELS 3 Zrotation Yrotation Xrotation
										End Site
										{
											OFFSET 0.000000 0.000000 0.000000
										}
									}
								}
								JOINT LThumb
								{
									OFFSET 0.000000 0.000000 0.000000
									CHANNELS 3 Zrotation Yrotation Xrotation
									End Site
									{
										OFFSET 0.000000 0.000000 0.000000
									}
								}
							}
						}
					}
				}
				JOINT RightShoulder
				{
					OFFSET 0.000000 0.000000 0.000000
					CHANNELS 3 Zrotation Yrotation Xrotation
					JOINT RightArm
					{
						OFFSET -3.136600 1.374050 -0.404650
						CHANNELS 3 Zrotation Yrotation Xrotation
						JOINT RightForeArm
						{
							OFFSET -5.241900 -0.000000 -0.000000
							CHANNELS 3 Zrotation Yrotation Xrotation
							JOINT RightHand
							{
								OFFSET -3.444170 -0.000000 -0.000000
								CHANNELS 3 Zrotation Yrotation Xrotation
								JOINT RightFingerBase
								{
									OFFSET 0.000000 0.000000 0.000000
									CHANNELS 3 Zrotation Yrotation Xrotation
									JOINT RightHandIndex1
									{
										OFFSET -0.622530 -0.000000 -0.000000
										CHANNELS 3 Zrotation Yrotation Xrotation
										End Site
										{
											OFFSET 0.000000 0.000000 0.000000
										}
									}
								}
								JOINT RThumb
								{
									OFFSET 0.000000 0.000000 0.000000
									CHANNELS 3 Zrotation Yrotation Xrotation
									End Site
									{
										OFFSET 0.000000 0.000000 0.000000
									}
								}
							}
						}
					}
				}
			}
		}
	}
}
MOTION
Frames: 10
Frame Time: 0.033333
82.236877 15.061510 12.216891 124.294287 10.990614 62.273389 11.717008 4.703783 6.611649 -48.250100 8.798327 -50.939257 -170.166864 35.112216 -36.294661 44.407225 -1.796505 -2.557295 10.241044 -16.461057 71.336795 -8.525030 -9.754722 -151.316923 -153.375771 -28.890921 95.929730 117.141815 11.464354 -33.719962 30.250677 72.819613 44.821141 -66.339790 -15.286718 -67.181280 16.223235 48.368606 133.249745 72.196043 77.277794 64.907794 114.157696 21.800137 110.943743 80.875768 16.323003 40.227549 -165.785642 31.616700 152.015374 -0.921053 1.090886 -1.230540 -18.248449 46.173630 -55.939185 56.858059 47.964022 -40.208997 -11.234343 64.988666 -64.211828 53.633733 83.565097 165.663013 111.225528 -20.427425 -127.091319 0.753184 1.028909 -1.061334 -1.069752 -1.229553 0.756104 53.535325 21.600093 56.617321 52.525399 3.002315 -172.251681 18.360249 -10.021099 61.397933 22.591301 -21.090263 68.567812 -101.868732 33.847654 -5.624262 1.052393 -0.695956 0.864123 0.811366 0.909673 1.109167 
82.237030 15.062279 12.211637 122.959321 10.890764 61.576530 10.189633 4.285254 5.673830 -48.307946 9.484068 -49.156379 -169.994552 35.674328 -36.843763 42.909454 -2.292271 -0.326855 10.595968 -16.663345 70.519910 -7.707080 -9.485607 -151.908431 -151.588517 -28.949646 95.834484 115.665810 11.774590 -35.221448 28.201609 68.328071 57.181626 -67.398669 -12.346027 -63.017552 17.207446 48.543724 133.937118 71.974281 77.452270 65.299863 114.040145 22.302137 110.401667 81.880460 12.683296 40.067707 -161.196712 32.760467 153.789085 -0.938219 1.012699 -1.206146 -18.581908 45.984158 -55.919665 57.202852 48.189207 -40.131487 -10.626952 65.686833 -63.932061 104.669597 81.876534 -141.434066 111.973735 -19.907807 -127.712330 0.867505 1.073675 -1.154065 -0.853893 -1.182847 0.829984 53.657104 21.012820 56.651702 51.619454 3.070942 -172.766101 17.899117 -9.420492 61.592046 22.481656 -22.248020 69.498214 -106.780866 32.197492 -9.034503 0.963099 -0.737356 0.917157 0.957463 0.840065 0.949943 
82.237190 15.063052 12.206354 121.406659 11.994749 61.835109 10.590198 4.169870 4.591467 -50.212334 10.574949 -47.116764 -169.681914 36.738787 -35.852133 43.389810 -1.301456 2.219662 10.761935 -16.799089 69.826019 -6.456393 -8.938406 -151.745577 -149.958476 -28.618401 96.834720 116.174147 14.047507 -35.681704 29.890679 72.639105 73.730721 -68.973135 -10.826887 -60.937300 18.549004 48.301602 133.862422 72.169951 77.538313 65.494141 113.529814 22.320733 110.048477 83.395567 7.772902 39.259559 -158.470541 32.324632 156.014792 -0.896821 1.001612 -1.166293 -20.539406 45.500417 -56.972236 57.640934 48.734211 -40.185079 -10.979096 66.352349 -63.898041 113.681438 79.486461 -135.842462 110.603634 -19.002139 -129.115335 0.729140 0.972190 -0.967952 -1.025151 -1.195970 0.658180 53.440065 21.529211 56.415010 50.602367 2.819905 -173.270872 18.369563 -8.468375 61.753588 22.434347 -24.673672 67.803125 -114.746276 28.357448 -13.828199 0.981027 -0.687607 0.775670 0.804981 0.876785 1.053087 
82.237274 15.063792 12.201394 120.165434 12.052814 61.619547 9.266922 3.639397 3.027598 -49.704176 10.274063 -44.928398 -169.419747 37.953287 -35.682799 42.544356 -0.626200 1.891744 10.469275 -16.563020 70.764175 -5.817180 -8.452998 -150.974281 -148.822728 -29.707145 98.264526 116.015728 15.562286 -36.544179 35.364568 71.016386 91.139903 -68.219503 -12.541922 -63.890034 19.271033 48.315938 133.750905 72.955209 78.020026 66.540586 113.163440 22.290391 109.577592 83.355998 6.330662 39.734230 -155.912602 35.190774 153.521014 -0.861783 1.007437 -1.116380 -22.994684 44.866977 -57.976335 57.367555 49.356800 -41.141561 -9.855219 67.792226 -62.060178 151.439923 77.069081 -104.184917 112.438761 -18.111213 -130.898803 0.788507 1.062332 -1.117770 -0.848838 -1.079946 0.776366 53.626498 21.516676 56.165730 49.287272 2.446181 -173.726147 18.873243 -7.553597 61.725469 22.591986 -26.395045 68.026045 -120.076582 27.566381 -13.175940 0.844565 -0.655207 0.874494 0.895434 0.781301 0.883564 
82.237228 15.064518 12.196708 119.277904 12.739549 62.045046 8.985742 3.065966 1.473138 -49.537834 10.047573 -43.473994 -168.614799 39.788323 -34.121009 43.469444 -0.453902 2.731036 9.913373 -16.238542 71.911448 -4.897136 -7.238451 -149.704064 -147.973698 -30.776445 99.701314 116.889030 17.395285 -36.945833 53.621509 71.419236 122.416961 -68.396450 -16.514328 -69.528542 21.165450 48.998198 133.734560 72.407085 78.025893 65.298025 112.430499 22.348934 109.134802 82.427788 5.705673 38.214940 -155.972223 34.761304 152.145067 -0.778320 0.904861 -1.052334 -25.771987 43.829650 -59.284728 57.403993 49.890743 -42.096369 -8.078488 68.857795 -59.690905 158.356300 77.689527 -105.377359 111.332353 -13.962377 -133.167319 0.667718 0.932433 -0.852555 -1.018730 -1.050644 0.524649 53.728050 22.043423 56.322856 48.134645 2.075847 -173.799380 20.386526 -6.737217 61.368552 23.332942 -28.747068 65.698555 -119.681903 20.874624 -11.459957 0.854420 -0.625955 0.633809 0.685461 0.900178 0.984371 
82.237061 15.065209 12.192380 118.970372 12.482435 62.120525 7.969644 1.508177 0.260876 -49.431125 8.147017 -43.447453 -167.583126 41.364376 -33.004661 43.454615 -0.373441 0.687764 9.307810 -15.675571 73.839684 -4.273858 -6.178156 -148.705420 -147.527142 -33.200862 100.864927 116.512106 18.361216 -38.568708 50.985940 69.857854 131.378082 -64.708993 -22.557198 -80.383489 21.311977 48.917097 133.511654 72.684863 78.945122 66.028397 111.756035 22.400320 108.457901 79.253589 6.123753 38.727059 -152.749125 37.035305 150.328417 -0.757140 0.947629 -1.064132 -27.843429 43.366319 -60.064954 56.718793 50.635104 -43.128114 -5.616894 69.801429 -56.693685 -175.992490 73.883202 -85.934999 112.859875 -10.604151 -135.130042 0.722865 0.955498 -1.055722 -0.796652 -0.979088 0.601633 54.094459 22.004692 56.272013 47.191246 1.628461 -173.963040 21.624195 -5.729148 61.649689 24.392343 -29.662924 65.403508 -120.467890 19.550331 -7.143449 0.716761 -0.542626 0.686581 0.782614 0.663662 0.803454 
82.236847 15.065875 12.188525 118.770558 13.010961 63.192856 7.403645 0.865349 -1.252963 -49.014404 6.962085 -41.604541 -166.568636 42.413664 -31.373529 45.017553 -0.346672 -0.896187 8.722085 -15.248153 74.978465 -3.280399 -4.916523 -147.549600 -147.560960 -34.783915 102.393310 116.548067 20.432406 -39.742652 59.222724 65.211372 163.578790 -62.899230 -29.022843 -91.117800 23.790749 49.797202 133.974068 68.614888 79.014341 61.502664 110.654659 22.730584 108.078047 77.728728 6.159938 37.185504 -155.955144 34.996633 147.065532 -0.676551 0.830978 -0.921744 -30.799920 42.517641 -61.335630 56.611198 51.235048 -44.033708 -1.222108 69.870466 -51.632585 -178.510912 74.347057 -92.806437 111.088136 -6.701221 -137.777120 0.665882 0.862786 -0.761481 -0.861209 -0.943061 0.451317 54.398167 22.353102 56.683697 46.236882 1.543240 -173.689895 23.446075 -4.822240 61.747413 25.145661 -31.276452 62.250654 -121.155266 15.942613 -4.681910 0.735332 -0.525871 0.541678 0.576361 0.871855 0.795614 
82.236671 15.066528 12.185172 119.592181 12.748199 64.393229 6.781615 -1.144372 -2.439432 -49.084797 4.530584 -42.103156 -164.907400 43.769017 -29.629375 44.395029 0.129856 -5.569413 8.085772 -14.508024 76.822758 -2.427640 -3.688336 -146.882988 -147.988024 -37.707392 103.124468 115.305481 21.603124 -42.128761 52.978264 63.455387 -174.680782 -54.990248 -35.707313 -109.078059 23.786110 49.698452 133.399842 65.143783 79.647175 58.420856 109.982880 22.825858 107.589983 73.615318 6.819508 36.528254 -155.067530 35.767617 143.221988 -0.615203 0.873546 -1.039431 -33.143333 42.344166 -62.331834 55.810902 51.462888 -45.038916 3.159104 70.279488 -47.102086 -166.016927 68.319035 -81.202502 111.708936 -2.992922 -140.765362 0.621771 0.827877 -0.957326 -0.743235 -0.858402 0.432208 54.938774 22.011086 56.746660 45.606848 1.413109 -173.494993 24.957857 -3.565441 62.603133 26.048494 -32.134355 61.680146 -123.595707 14.220081 1.670339 0.621119 -0.437076 0.527186 0.648927 0.559488 0.763808 
82.236496 15.067160 12.182309 119.878820 13.381791 65.950122 5.654925 -1.716246 -4.141993 -48.523604 3.433781 -40.035904 -164.237927 44.562562 -27.907744 45.968631 -0.615517 -8.007565 7.491727 -13.903263 77.528222 -0.945909 -2.461876 -146.606125 -147.768942 -39.141186 103.877032 114.861889 23.287598 -43.920027 57.064423 63.631625 -129.450118 -46.270811 -42.587660 -129.963455 26.537767 50.828642 133.751463 60.423409 79.704634 53.096344 109.043178 23.430241 106.999256 72.313107 7.842642 35.169401 -158.020258 32.342289 139.904406 -0.591291 0.780644 -0.782690 -36.505861 41.548187 -63.801805 55.081947 51.454306 -46.547358 7.931495 69.269638 -41.412950 -177.410801 69.374959 -91.942031 108.204502 0.725994 -144.243394 0.617549 0.821065 -0.698831 -0.705476 -0.835101 0.370499 55.876525 21.887245 57.393636 44.925171 1.782440 -173.054598 26.683919 -2.215511 63.350083 26.488721 -33.971895 58.812380 -126.163339 9.040846 2.711254 0.577544 -0.403736 0.463713 0.528807 0.781021 0.616015 
82.236198 15.067779 12.179903 120.961797 13.329338 67.948518 5.607109 -2.784553 -4.972941 -49.075392 0.376156 -40.689326 -162.782360 45.584451 -26.053963 45.552914 0.432106 -12.522337 6.934293 -13.081837 78.754047 0.399345 -0.524874 -146.587256 -148.289713 -42.046814 104.005801 113.691017 23.819471 -46.674412 65.978369 67.681236 -86.469720 -30.481747 -43.777896 -157.126239 26.155236 51.443361 131.897377 56.834815 80.260028 49.767071 108.720849 23.547312 106.643082 69.416024 8.502630 34.551679 -156.538551 31.525134 137.043236 -0.482129 0.747109 -0.966445 -39.202068 41.360191 -64.703706 53.561988 51.505922 -48.316145 10.172650 68.317917 -39.136499 178.965371 60.932009 -93.882682 105.946800 4.047085 -148.011549 0.545226 0.691902 -0.842198 -0.679108 -0.722070 0.303345 56.522579 21.458952 57.631762 44.545968 2.025649 -172.749426 27.828219 -0.573118 64.584451 27.651391 -34.199513 57.462987 -127.617151 6.124270 9.537011 0.538192 -0.353370 0.405583 0.465178 0.454985 0.725988 
